#Comment line ignore any data following # character 
#Hierarchical Translation and Rotation (.htr) file 
[Header]	
#Header keywords are followed by a single value 
FileType HTR		#Single word string
DataType HTRS		#Translation followed by rotation and scale data
FileVersion 1		#integer
NumSegments 84		#integer
NumFrames 2		#integer
DataFrameRate 30		#integer, data frame rate in this file
EulerRotationOrder ZYX
CalibrationUnits mm
RotationUnits Degrees
GlobalAxisofGravity Y
BoneLengthAxis Y
ScaleFactor 1.00
[SegmentNames&Hierarchy]
#CHILD	PARENT
MASTER GLOBAL
root MASTER
chest root
L_mid_tent01 root
R_mid_tent01 root
spine01 root
Bip01_Neck chest
L_humerus chest
R_humerus chest
weapon_bone chest
Bip01_Head Bip01_Neck
eye_left_bone Bip01_Head
eye_right_bone Bip01_Head
L_forearm L_humerus
L_front_hand L_forearm
L_weapon_bone L_forearm
L_front_hand01_01 L_front_hand
L_front_hand02_01 L_front_hand
L_front_hand03_01 L_front_hand
L_front_hand01_02 L_front_hand01_01
L_front_hand02_02 L_front_hand02_01
L_front_hand03_02 L_front_hand03_01
R_forearm R_humerus
R_front_hand R_forearm
R_weapon_bone R_forearm
R_front_hand01_01 R_front_hand
R_front_hand02_01 R_front_hand
R_front_hand03_01 R_front_hand
R_front_hand01_02 R_front_hand01_01
R_front_hand02_02 R_front_hand02_01
R_front_hand03_02 R_front_hand03_01
null_rope01_connect L_mid_tent01
Rope1_Seg01 null_rope01_connect
Rope1_Seg02 Rope1_Seg01
Rope1_Seg03 Rope1_Seg02
Rope1_Seg04 Rope1_Seg03
Rope1_Seg05 Rope1_Seg04
Rope1_Seg06 Rope1_Seg05
Rope1_Seg07 Rope1_Seg06
Rope1_Seg09 Rope1_Seg07
L_mid_hand01 Rope1_Seg09
L_mid_hand02 Rope1_Seg09
L_mid_hand03 Rope1_Seg09
null_rope02_connect R_mid_tent01
Rope2_Seg01 null_rope02_connect
Rope2_Seg02 Rope2_Seg01
Rope2_Seg03 Rope2_Seg02
Rope2_Seg04 Rope2_Seg03
Rope2_Seg05 Rope2_Seg04
Rope2_Seg06 Rope2_Seg05
Rope2_Seg07 Rope2_Seg06
Rope2_Seg09 Rope2_Seg07
R_mid_hand01 Rope2_Seg09
R_mid_hand02 Rope2_Seg09
R_mid_hand03 Rope2_Seg09
spine02 spine01
spine03 spine02
pelvis spine03
null_rope03_connect pelvis
null_rope04_connect pelvis
Rope3_Seg01 null_rope03_connect
Rope3_Seg02 Rope3_Seg01
Rope3_Seg03 Rope3_Seg02
Rope3_Seg04 Rope3_Seg03
Rope3_Seg05 Rope3_Seg04
Rope3_Seg06 Rope3_Seg05
Rope3_Seg07 Rope3_Seg06
Rope3_Seg08 Rope3_Seg07
Rope3_Seg09 Rope3_Seg08
R_rear_hand01 Rope3_Seg09
R_rear_hand02 Rope3_Seg09
R_rear_hand03 Rope3_Seg09
Rope4_Seg01 null_rope04_connect
Rope4_Seg02 Rope4_Seg01
Rope4_Seg03 Rope4_Seg02
Rope4_Seg04 Rope4_Seg03
Rope4_Seg05 Rope4_Seg04
Rope4_Seg06 Rope4_Seg05
Rope4_Seg07 Rope4_Seg06
Rope4_Seg08 Rope4_Seg07
Rope4_Seg09 Rope4_Seg08
L_rear_hand01 Rope4_Seg09
L_rear_hand02 Rope4_Seg09
L_rear_hand03 Rope4_Seg09
[BasePosition]
#SegmentName Tx, Ty, Tz, Rx, Ry, Rz, BoneLength
MASTER 0.000000 0.000000 0.000000 -90.000000 0.000000 0.000000 10.000000 
root 0.000000 0.000000 0.000000 0.000000 0.000000 0.000000 10.000000 
chest 0.000000 0.000000 0.000000 0.000000 0.000000 0.000000 10.000000 
L_mid_tent01 0.000000 0.000000 0.000000 0.000000 0.000000 0.000000 10.000000 
R_mid_tent01 0.000000 0.000000 0.000000 0.000000 0.000000 0.000000 10.000000 
spine01 0.000000 0.000000 0.000000 0.000000 0.000000 0.000000 10.000000 
Bip01_Neck 0.000000 0.000000 0.000000 0.000000 0.000000 0.000000 10.000000 
L_humerus 0.000000 0.000000 0.000000 0.000000 0.000000 0.000000 10.000000 
R_humerus 0.000000 0.000000 0.000000 0.000000 0.000000 0.000000 10.000000 
weapon_bone 0.000000 0.000000 0.000000 0.000000 0.000000 0.000000 10.000000 
Bip01_Head 0.000000 0.000000 0.000000 0.000000 0.000000 0.000000 10.000000 
eye_left_bone 0.000000 0.000000 0.000000 0.000000 0.000000 0.000000 10.000000 
eye_right_bone 0.000000 0.000000 0.000000 0.000000 0.000000 0.000000 10.000000 
L_forearm 0.000000 0.000000 0.000000 0.000000 0.000000 0.000000 10.000000 
L_front_hand 0.000000 0.000000 0.000000 0.000000 0.000000 0.000000 10.000000 
L_weapon_bone 0.000000 0.000000 0.000000 0.000000 0.000000 0.000000 10.000000 
L_front_hand01_01 0.000000 0.000000 0.000000 0.000000 0.000000 0.000000 10.000000 
L_front_hand02_01 0.000000 0.000000 0.000000 0.000000 0.000000 0.000000 10.000000 
L_front_hand03_01 0.000000 0.000000 0.000000 0.000000 0.000000 0.000000 10.000000 
L_front_hand01_02 0.000000 0.000000 0.000000 0.000000 0.000000 0.000000 10.000000 
L_front_hand02_02 0.000000 0.000000 0.000000 0.000000 0.000000 0.000000 10.000000 
L_front_hand03_02 0.000000 0.000000 0.000000 0.000000 0.000000 0.000000 10.000000 
R_forearm 0.000000 0.000000 0.000000 0.000000 0.000000 0.000000 10.000000 
R_front_hand 0.000000 0.000000 0.000000 0.000000 0.000000 0.000000 10.000000 
R_weapon_bone 0.000000 0.000000 0.000000 0.000000 0.000000 0.000000 10.000000 
R_front_hand01_01 0.000000 0.000000 0.000000 0.000000 0.000000 0.000000 10.000000 
R_front_hand02_01 0.000000 0.000000 0.000000 0.000000 0.000000 0.000000 10.000000 
R_front_hand03_01 0.000000 0.000000 0.000000 0.000000 0.000000 0.000000 10.000000 
R_front_hand01_02 0.000000 0.000000 0.000000 0.000000 0.000000 0.000000 10.000000 
R_front_hand02_02 0.000000 0.000000 0.000000 0.000000 0.000000 0.000000 10.000000 
R_front_hand03_02 0.000000 0.000000 0.000000 0.000000 0.000000 0.000000 10.000000 
null_rope01_connect 0.000000 0.000000 0.000000 0.000000 0.000000 0.000000 10.000000 
Rope1_Seg01 0.000000 0.000000 0.000000 0.000000 0.000000 0.000000 10.000000 
Rope1_Seg02 0.000000 0.000000 0.000000 0.000000 0.000000 0.000000 10.000000 
Rope1_Seg03 0.000000 0.000000 0.000000 0.000000 0.000000 0.000000 10.000000 
Rope1_Seg04 0.000000 0.000000 0.000000 0.000000 0.000000 0.000000 10.000000 
Rope1_Seg05 0.000000 0.000000 0.000000 0.000000 0.000000 0.000000 10.000000 
Rope1_Seg06 0.000000 0.000000 0.000000 0.000000 0.000000 0.000000 10.000000 
Rope1_Seg07 0.000000 0.000000 0.000000 0.000000 0.000000 0.000000 10.000000 
Rope1_Seg09 0.000000 0.000000 0.000000 0.000000 0.000000 0.000000 10.000000 
L_mid_hand01 0.000000 0.000000 0.000000 0.000000 0.000000 0.000000 10.000000 
L_mid_hand02 0.000000 0.000000 0.000000 0.000000 0.000000 0.000000 10.000000 
L_mid_hand03 0.000000 0.000000 0.000000 0.000000 0.000000 0.000000 10.000000 
null_rope02_connect 0.000000 0.000000 0.000000 0.000000 0.000000 0.000000 10.000000 
Rope2_Seg01 0.000000 0.000000 0.000000 0.000000 0.000000 0.000000 10.000000 
Rope2_Seg02 0.000000 0.000000 0.000000 0.000000 0.000000 0.000000 10.000000 
Rope2_Seg03 0.000000 0.000000 0.000000 0.000000 0.000000 0.000000 10.000000 
Rope2_Seg04 0.000000 0.000000 0.000000 0.000000 0.000000 0.000000 10.000000 
Rope2_Seg05 0.000000 0.000000 0.000000 0.000000 0.000000 0.000000 10.000000 
Rope2_Seg06 0.000000 0.000000 0.000000 0.000000 0.000000 0.000000 10.000000 
Rope2_Seg07 0.000000 0.000000 0.000000 0.000000 0.000000 0.000000 10.000000 
Rope2_Seg09 0.000000 0.000000 0.000000 0.000000 0.000000 0.000000 10.000000 
R_mid_hand01 0.000000 0.000000 0.000000 0.000000 0.000000 0.000000 10.000000 
R_mid_hand02 0.000000 0.000000 0.000000 0.000000 0.000000 0.000000 10.000000 
R_mid_hand03 0.000000 0.000000 0.000000 0.000000 0.000000 0.000000 10.000000 
spine02 0.000000 0.000000 0.000000 0.000000 0.000000 0.000000 10.000000 
spine03 0.000000 0.000000 0.000000 0.000000 0.000000 0.000000 10.000000 
pelvis 0.000000 0.000000 0.000000 0.000000 0.000000 0.000000 10.000000 
null_rope03_connect 0.000000 0.000000 0.000000 0.000000 0.000000 0.000000 10.000000 
null_rope04_connect 0.000000 0.000000 0.000000 0.000000 0.000000 0.000000 10.000000 
Rope3_Seg01 0.000000 0.000000 0.000000 0.000000 0.000000 0.000000 10.000000 
Rope3_Seg02 0.000000 0.000000 0.000000 0.000000 0.000000 0.000000 10.000000 
Rope3_Seg03 0.000000 0.000000 0.000000 0.000000 0.000000 0.000000 10.000000 
Rope3_Seg04 0.000000 0.000000 0.000000 0.000000 0.000000 0.000000 10.000000 
Rope3_Seg05 0.000000 0.000000 0.000000 0.000000 0.000000 0.000000 10.000000 
Rope3_Seg06 0.000000 0.000000 0.000000 0.000000 0.000000 0.000000 10.000000 
Rope3_Seg07 0.000000 0.000000 0.000000 0.000000 0.000000 0.000000 10.000000 
Rope3_Seg08 0.000000 0.000000 0.000000 0.000000 0.000000 0.000000 10.000000 
Rope3_Seg09 0.000000 0.000000 0.000000 0.000000 0.000000 0.000000 10.000000 
R_rear_hand01 0.000000 0.000000 0.000000 0.000000 0.000000 0.000000 10.000000 
R_rear_hand02 0.000000 0.000000 0.000000 0.000000 0.000000 0.000000 10.000000 
R_rear_hand03 0.000000 0.000000 0.000000 0.000000 0.000000 0.000000 10.000000 
Rope4_Seg01 0.000000 0.000000 0.000000 0.000000 0.000000 0.000000 10.000000 
Rope4_Seg02 0.000000 0.000000 0.000000 0.000000 0.000000 0.000000 10.000000 
Rope4_Seg03 0.000000 0.000000 0.000000 0.000000 0.000000 0.000000 10.000000 
Rope4_Seg04 0.000000 0.000000 0.000000 0.000000 0.000000 0.000000 10.000000 
Rope4_Seg05 0.000000 0.000000 0.000000 0.000000 0.000000 0.000000 10.000000 
Rope4_Seg06 0.000000 0.000000 0.000000 0.000000 0.000000 0.000000 10.000000 
Rope4_Seg07 0.000000 0.000000 0.000000 0.000000 0.000000 0.000000 10.000000 
Rope4_Seg08 0.000000 0.000000 0.000000 0.000000 0.000000 0.000000 10.000000 
Rope4_Seg09 0.000000 0.000000 0.000000 0.000000 0.000000 0.000000 10.000000 
L_rear_hand01 0.000000 0.000000 0.000000 0.000000 0.000000 0.000000 10.000000 
L_rear_hand02 0.000000 0.000000 0.000000 0.000000 0.000000 0.000000 10.000000 
L_rear_hand03 0.000000 0.000000 0.000000 0.000000 0.000000 0.000000 10.000000 
#Beginning of Data. Separated by tabs
#Fr	Tx	Ty	Tz	Rx	Ry	Rz	SF
[MASTER]
39 -88.197792 -708.751953 696.761230 0.001346 0.001923 -20.001186 997.789734
40 -78.929451 -664.031006 617.204285 0.001346 0.001923 -20.001186 910.004517
[root]
39 8.311391 256.714600 896.626648 -83.782471 -7.622337 -89.861702 932.690125
40 1.997834 268.619659 928.346558 -83.064819 -7.629086 -89.858170 966.430481
[chest]
39 -84.512650 -34.090519 0.000000 0.780995 -2.921480 133.962631 91.129311
40 -84.512650 -34.090519 0.000000 0.900859 -2.451961 133.434967 91.129311
[L_mid_tent01]
39 27.298832 22.179316 -249.918762 -179.456146 82.347961 -113.257843 252.381729
40 27.298830 22.179317 -249.918762 -179.043594 79.762955 -113.399849 252.381729
[R_mid_tent01]
39 23.228794 24.509907 226.238495 82.342117 -50.559738 156.350372 228.744751
40 23.228794 24.509907 226.238495 82.819557 -51.046753 155.443985 228.744751
[spine01]
39 -0.361383 -0.195265 0.000000 -0.000001 -0.000007 22.052340 0.410763
40 -0.361383 -0.195265 0.000000 -0.000001 -0.000007 22.052340 0.410763
[Bip01_Neck]
39 165.484543 71.581718 0.000119 176.643677 -1.657967 43.431911 180.302734
40 165.484543 71.581718 0.000119 176.643677 -1.657966 43.431908 180.302734
[L_humerus]
39 -13.983130 -135.272980 -120.471481 178.964996 1.892241 -146.979980 181.680161
40 -13.983130 -135.272980 -120.471481 178.964996 1.892241 -146.979980 181.680161
[R_humerus]
39 -13.983309 -135.273102 125.287651 176.357590 6.146129 -145.149719 184.909012
40 -13.983309 -135.273102 125.287651 176.357590 6.146129 -145.149719 184.909012
[weapon_bone]
39 235.964890 -300.705902 0.000000 0.000000 -89.951546 -128.212341 382.234833
40 235.964890 -300.705902 0.000000 0.000000 -89.951546 -128.212341 382.234833
[Bip01_Head]
39 213.347168 186.014755 8.292338 -5.260262 2.797309 -43.902935 283.173553
40 213.350372 186.009781 8.406979 -5.377363 2.796536 -43.902657 283.176086
[eye_left_bone]
39 -24.626970 125.451866 -64.772606 0.000000 -90.000000 -99.840431 143.318359
40 -24.626970 125.451866 -64.772606 0.000000 -90.000000 -99.840431 143.318359
[eye_right_bone]
39 -24.626970 125.451866 64.327362 0.000000 -89.965736 80.156380 143.117676
40 -24.626970 125.451866 64.327362 0.000000 -89.965736 80.156380 143.117676
[L_forearm]
39 322.776093 0.000000 -0.000119 0.001130 -0.002057 -147.582291 322.776093
40 322.776093 0.000000 -0.000119 0.001130 -0.002057 -147.582275 322.776093
[L_front_hand]
39 241.149185 -0.042021 -3.300071 -169.095886 -1.834028 -27.422895 241.171753
40 241.149185 -0.042021 -3.300071 -168.695114 -1.834088 -27.422112 241.171753
[L_weapon_bone]
39 156.183838 0.000000 0.000000 0.000014 0.000007 0.000001 156.183838
40 156.183838 0.000000 0.000000 0.000014 0.000007 0.000001 156.183838
[L_front_hand01_01]
39 86.095154 20.947098 -0.655860 -0.280863 -0.529023 65.719749 88.609184
40 86.095154 20.947098 -0.655860 -0.277983 -0.530787 65.546242 88.609184
[L_front_hand02_01]
39 86.935165 -11.437475 24.513514 141.573502 -54.721832 -46.168587 91.046425
40 86.935165 -11.437475 24.513514 141.381668 -54.613472 -45.933842 91.046425
[L_front_hand03_01]
39 86.637497 -14.123976 -20.424902 -141.947708 52.959339 -48.227592 90.126129
40 86.637497 -14.123976 -20.424902 -141.743057 52.837067 -47.970230 90.126129
[L_front_hand01_02]
39 71.020905 -0.000179 0.000030 0.000319 -0.002326 -105.601059 71.020905
40 71.020905 -0.000179 0.000030 0.000318 -0.002326 -105.576965 71.020905
[L_front_hand02_02]
39 71.020927 -0.000119 0.000060 0.000319 -0.002326 -105.601059 71.020927
40 71.020927 -0.000119 0.000060 0.000318 -0.002326 -105.576965 71.020927
[L_front_hand03_02]
39 71.020905 -0.000060 0.000060 0.000319 -0.002326 -105.601059 71.020905
40 71.020905 -0.000060 0.000060 0.000318 -0.002326 -105.576965 71.020905
[R_forearm]
39 322.776428 -0.000060 0.000030 0.114825 0.181653 -148.389832 322.776428
40 322.776428 -0.000060 0.000030 0.114825 0.181654 -148.389832 322.776428
[R_front_hand]
39 238.847015 -0.006795 2.210259 -2.635298 -10.645461 -26.312506 238.857239
40 238.847015 -0.006795 2.210259 -2.635298 -10.645461 -26.312504 238.857239
[R_weapon_bone]
39 155.664093 0.002503 -0.000030 0.003487 0.001180 -90.988930 155.664078
40 155.664093 0.002503 -0.000030 0.003487 0.001180 -90.988914 155.664078
[R_front_hand01_01]
39 87.624611 14.231146 22.918642 -139.581711 -53.528690 43.812485 91.683487
40 87.624611 14.231146 22.918642 -139.327072 -53.369385 43.496201 91.683487
[R_front_hand02_01]
39 89.356956 14.367283 -19.491137 140.375320 51.957642 46.474529 92.579636
40 89.356956 14.367283 -19.491137 140.132309 51.800396 46.165821 92.579636
[R_front_hand03_01]
39 87.286232 -22.307278 -0.143439 0.072643 -0.448515 -64.085037 90.091743
40 87.286232 -22.307278 -0.143439 0.071684 -0.448669 -63.840153 90.091743
[R_front_hand01_02]
39 71.020905 0.000060 0.000119 0.002330 -0.000281 103.730621 71.020905
40 71.020905 0.000060 0.000119 0.002331 -0.000279 103.664406 71.020905
[R_front_hand02_02]
39 71.020844 -0.000030 -0.000119 0.002330 -0.000281 103.730621 71.020836
40 71.020844 -0.000030 -0.000119 0.002331 -0.000279 103.664406 71.020836
[R_front_hand03_02]
39 71.020905 0.000000 0.000030 0.002330 -0.000281 103.730621 71.020905
40 71.020905 0.000000 0.000030 0.002331 -0.000279 103.664406 71.020905
[null_rope01_connect]
39 328.732483 0.000000 -0.000238 -150.913239 12.011755 160.284683 328.732483
40 328.732483 0.000000 -0.000238 -151.084854 14.001486 159.968353 328.732483
[Rope1_Seg01]
39 -0.000124 0.000000 0.000000 -6.705967 41.464741 175.858032 0.000124
40 -0.000124 0.000000 0.000000 -8.062901 36.487648 174.006393 0.000124
[Rope1_Seg02]
39 139.999863 -0.000179 0.000000 0.091858 5.621475 1.635319 139.999863
40 139.999863 -0.000179 0.000000 0.030672 8.258178 0.058434 139.999863
[Rope1_Seg03]
39 139.999924 0.000060 -0.000060 -0.477839 7.855829 -1.567969 139.999924
40 139.999924 0.000060 -0.000060 -1.814040 13.546909 -7.461055 139.999924
[Rope1_Seg04]
39 139.999924 -0.000060 -0.000119 -1.278322 22.655514 15.727093 139.999924
40 139.999924 -0.000060 -0.000119 -5.853380 28.983856 22.323586 139.999924
[Rope1_Seg05]
39 139.999832 0.000119 -0.000060 -0.345881 12.302346 21.890589 139.999832
40 139.999832 0.000119 -0.000060 -2.841554 6.990780 19.975510 139.999832
[Rope1_Seg06]
39 139.999954 0.000119 -0.000060 0.011461 3.636205 5.610547 139.999954
40 139.999954 0.000119 -0.000060 -0.441233 2.453931 5.445711 139.999954
[Rope1_Seg07]
39 139.999985 0.000060 0.000000 0.045291 1.895406 2.935926 139.999985
40 139.999985 0.000060 0.000000 -0.163817 1.277304 2.908393 139.999985
[Rope1_Seg09]
39 121.602913 0.000119 -0.000089 -89.793175 -1.359789 0.847147 121.602913
40 121.602913 0.000119 -0.000089 -89.793175 -1.359789 0.847147 121.602913
[L_mid_hand01]
39 103.859421 1.038730 8.195221 130.544373 -67.584534 -38.866943 104.187431
40 103.859421 1.038730 8.195221 130.544373 -67.584526 -38.866943 104.187431
[L_mid_hand02]
39 105.572853 -4.139662 -10.864139 -168.923172 43.409309 -73.498886 106.211075
40 105.572853 -4.139662 -10.864139 -168.923172 43.409309 -73.498894 106.211075
[L_mid_hand03]
39 104.641464 17.579376 -3.913581 -6.012627 17.808174 74.893669 106.179977
40 104.641464 17.579376 -3.913581 -6.012627 17.808178 74.893677 106.179977
[null_rope02_connect]
39 328.732849 0.000179 -0.000119 -141.268967 2.100510 20.446148 328.732849
40 328.732849 0.000179 -0.000119 -140.599960 2.036938 19.710779 328.732849
[Rope2_Seg01]
39 0.000124 0.000000 0.000000 94.284447 -9.144804 55.581459 0.000124
40 0.000124 0.000000 0.000000 94.494064 -11.520307 53.854561 0.000124
[Rope2_Seg02]
39 139.999741 -0.000060 -0.000119 1.136013 -1.772801 -9.762405 139.999756
40 139.999741 -0.000060 -0.000119 0.898639 -2.266310 -11.139132 139.999756
[Rope2_Seg03]
39 140.000107 0.000030 0.000000 6.263813 -6.247056 -28.086569 140.000107
40 140.000107 0.000030 0.000000 7.027460 -8.466928 -34.269024 140.000107
[Rope2_Seg04]
39 139.999802 0.000000 -0.000060 18.272697 -15.670983 -50.573051 139.999802
40 139.999802 0.000000 -0.000060 15.486064 -14.617499 -48.214195 139.999802
[Rope2_Seg05]
39 139.999985 -0.000060 0.000119 6.250220 -1.494298 -24.486477 139.999985
40 139.999985 -0.000060 0.000119 5.724450 -0.293651 -24.011526 139.999985
[Rope2_Seg06]
39 139.999893 -0.000030 -0.000119 4.460290 0.024759 -13.072426 139.999893
40 139.999893 -0.000030 -0.000119 4.628368 -0.803715 -12.927616 139.999893
[Rope2_Seg07]
39 139.999893 0.000060 -0.000060 2.803977 -1.587998 -6.304045 139.999893
40 139.999893 0.000060 -0.000060 2.672887 -1.599463 -6.114051 139.999893
[Rope2_Seg09]
39 121.338966 0.000089 -0.000060 33.793236 -1.359788 -0.847141 121.338966
40 121.338966 0.000089 -0.000060 33.793236 -1.359788 -0.847141 121.338966
[R_mid_hand01]
39 104.680779 11.144459 -10.335981 -16.212059 45.237247 70.462868 105.778534
40 104.680779 11.144459 -10.335981 -16.212063 45.237247 70.462852 105.778534
[R_mid_hand02]
39 104.070427 2.443552 8.231699 49.067394 -67.749794 39.286465 104.424065
40 104.070427 2.443552 8.231699 49.067368 -67.749771 39.286453 104.424065
[R_mid_hand03]
39 106.028137 -11.221827 -5.996406 -177.101105 15.551026 -76.585571 106.788818
40 106.028137 -11.221827 -5.996406 -177.101105 15.551026 -76.585571 106.788818
[spine02]
39 129.756927 0.001550 0.000119 0.528962 -4.025073 -15.339461 129.756927
40 129.756927 0.001550 0.000119 0.531332 -4.024757 -15.371999 129.756927
[spine03]
39 78.613892 0.081538 -4.899049 1.996054 3.781693 17.982590 78.766434
40 78.613892 0.081540 -4.899049 1.997567 3.780727 18.001162 78.766434
[pelvis]
39 169.435242 0.051022 0.000000 -0.070150 -0.177808 17.150991 169.435257
40 169.435242 0.051022 0.000000 -0.070218 -0.177781 17.194574 169.435257
[null_rope03_connect]
39 -1.257226 -2.466202 137.391083 -68.082840 -69.621223 125.150375 137.418976
40 -1.257226 -2.466202 137.391083 -66.078918 -69.451477 123.256203 137.418976
[null_rope04_connect]
39 -1.259640 -2.480268 -137.844437 -68.082840 -69.621223 125.150375 137.872513
40 -1.259640 -2.480268 -137.844437 -66.078918 -69.451477 123.256203 137.872513
[Rope3_Seg01]
39 0.000000 0.000028 0.000000 47.499054 -61.918255 -102.393829 0.000028
40 0.000000 0.000029 0.000000 50.386040 -61.167179 -105.836250 0.000029
[Rope3_Seg02]
39 139.999924 -0.000119 0.000060 1.141142 14.777763 16.060499 139.999924
40 139.999924 -0.000119 0.000060 0.597324 14.226830 14.518532 139.999924
[Rope3_Seg03]
39 139.999924 -0.000119 0.000119 14.622454 30.490955 38.863319 139.999924
40 139.999924 -0.000119 0.000119 14.823281 31.578075 39.198902 139.999924
[Rope3_Seg04]
39 139.999924 0.000119 0.000000 19.855700 20.404823 19.297800 139.999924
40 139.999924 0.000119 0.000000 19.798178 21.464046 20.885721 139.999924
[Rope3_Seg05]
39 139.999924 -0.000238 0.000060 19.242092 8.611864 5.101531 139.999924
40 139.999924 -0.000238 0.000060 22.907129 9.843663 5.176417 139.999924
[Rope3_Seg06]
39 139.999893 -0.000119 -0.000060 92.769363 16.810705 5.406236 139.999893
40 139.999893 -0.000119 -0.000060 95.135376 23.839201 2.707872 139.999893
[Rope3_Seg07]
39 139.999771 0.000060 -0.000119 35.218193 10.683575 -41.574074 139.999771
40 139.999771 0.000060 -0.000119 23.209566 1.030743 -43.661919 139.999771
[Rope3_Seg08]
39 139.999985 -0.000060 0.000000 4.321313 -9.545594 -21.643290 139.999985
40 139.999985 -0.000060 0.000000 3.173074 -7.249589 -18.069145 139.999985
[Rope3_Seg09]
39 90.185997 -0.000179 -0.000060 89.793228 -1.359877 -0.847183 90.185997
40 90.185997 -0.000179 -0.000060 89.793228 -1.359877 -0.847183 90.185997
[R_rear_hand01]
39 103.366196 -6.073594 -10.757982 -177.714203 24.565966 -73.910957 104.101845
40 103.366196 -6.073594 -10.757982 -177.714203 24.565960 -73.910950 104.101845
[R_rear_hand02]
39 100.509819 12.039542 -7.992327 -12.874829 36.868488 72.167213 101.543350
40 100.509819 12.039542 -7.992327 -12.874829 36.868488 72.167213 101.543350
[R_rear_hand03]
39 101.539970 5.215704 5.435467 71.484573 -71.816628 21.513819 101.819031
40 101.539970 5.215704 5.435467 71.484581 -71.816628 21.513813 101.819031
[Rope4_Seg01]
39 -0.000056 0.000000 0.000000 -65.640366 -66.674568 -149.412415 0.000056
40 -0.000058 0.000000 0.000000 -65.595261 -70.469757 -149.465866 0.000058
[Rope4_Seg02]
39 139.999985 0.000060 0.000119 0.868898 13.773516 2.517967 139.999985
40 139.999985 0.000060 0.000119 0.663399 12.782748 4.083029 139.999985
[Rope4_Seg03]
39 139.999924 0.000000 -0.000238 3.389122 19.920578 3.239600 139.999924
40 139.999924 0.000000 -0.000238 2.285699 19.187326 6.019166 139.999924
[Rope4_Seg04]
39 139.999985 0.000000 0.000119 7.715511 15.640046 -1.974439 139.999985
40 139.999985 0.000000 0.000119 5.996412 16.295048 0.395652 139.999985
[Rope4_Seg05]
39 139.999802 -0.000060 -0.000119 9.529103 15.489305 1.015087 139.999802
40 139.999802 -0.000060 -0.000119 5.549254 14.715393 3.499855 139.999802
[Rope4_Seg06]
39 139.999924 0.000000 0.000060 128.955368 40.984215 4.943785 139.999924
40 139.999924 0.000000 0.000060 173.275009 37.447006 16.968060 139.999924
[Rope4_Seg07]
39 139.999802 0.000000 0.000000 27.168991 -16.876886 -30.475477 139.999802
40 139.999802 0.000000 0.000000 13.729025 -29.740971 -23.154018 139.999802
[Rope4_Seg08]
39 139.999924 0.000000 0.000119 0.125199 -7.876127 -5.467112 139.999924
40 139.999924 0.000000 0.000119 -1.108428 -8.591578 -3.983016 139.999924
[Rope4_Seg09]
39 90.185791 0.000060 0.000060 -135.617828 2.228885 0.850567 90.185791
40 90.185791 0.000060 0.000060 -135.617828 2.228885 0.850567 90.185791
[L_rear_hand01]
39 101.696655 -8.392275 -7.654577 -12.874829 -36.868488 107.832764 102.329041
40 101.696655 -8.392275 -7.654577 -12.874834 -36.868492 107.832779 102.329041
[L_rear_hand02]
39 102.726799 -1.568258 5.773216 71.484581 71.816628 158.486160 102.900848
40 102.726799 -1.568258 5.773216 71.484581 71.816628 158.486160 102.900848
[L_rear_hand03]
39 104.552910 9.721220 -10.420293 -177.714203 -24.565960 -106.089035 105.519653
40 104.552910 9.721220 -10.420293 -177.714203 -24.565960 -106.089035 105.519653
